<svg width="19" height="25" viewBox="0 0 19 25" fill="none" xmlns="http://www.w3.org/2000/svg">
<path d="M17.5156 19.25H16.8828V10.2852C16.8828 6.56475 14.1327 3.49033 10.5547 2.97881V1.95312C10.5547 1.37041 10.0827 0.898438 9.5 0.898438C8.91728 0.898438 8.44531 1.37041 8.44531 1.95312V2.97881C4.86729 3.49033 2.11719 6.56475 2.11719 10.2852V19.25H1.48438C1.01768 19.25 0.640625 19.6271 0.640625 20.0938V20.9375C0.640625 21.0535 0.735547 21.1484 0.851562 21.1484H6.54688C6.54688 22.7779 7.87051 24.1016 9.5 24.1016C11.1295 24.1016 12.4531 22.7779 12.4531 21.1484H18.1484C18.2645 21.1484 18.3594 21.0535 18.3594 20.9375V20.0938C18.3594 19.6271 17.9823 19.25 17.5156 19.25ZM9.5 22.4141C8.80127 22.4141 8.23438 21.8472 8.23438 21.1484H10.7656C10.7656 21.8472 10.1987 22.4141 9.5 22.4141ZM4.01562 19.25V10.2852C4.01562 8.81914 4.58516 7.44277 5.62139 6.40654C6.65762 5.37031 8.03398 4.80078 9.5 4.80078C10.966 4.80078 12.3424 5.37031 13.3786 6.40654C14.4148 7.44277 14.9844 8.81914 14.9844 10.2852V19.25H4.01562Z" fill="#2C2C2C"/>
</svg>