<svg width="23" height="21" viewBox="0 0 23 21" fill="none" xmlns="http://www.w3.org/2000/svg">
<path d="M22.3369 4.47696C21.9835 3.65862 21.4739 2.91705 20.8366 2.29376C20.1989 1.66861 19.447 1.17181 18.6218 0.830378C17.7661 0.47493 16.8483 0.292991 15.9218 0.295124C14.6219 0.295124 13.3536 0.651081 12.2515 1.32344C11.9878 1.48428 11.7373 1.66094 11.5 1.85342C11.2627 1.66094 11.0122 1.48428 10.7485 1.32344C9.64639 0.651081 8.37812 0.295124 7.07822 0.295124C6.14219 0.295124 5.23516 0.47442 4.37822 0.830378C3.55029 1.17315 2.8041 1.66622 2.16338 2.29376C1.52528 2.91634 1.01556 3.65809 0.663086 4.47696C0.296582 5.32862 0.109375 6.23301 0.109375 7.16378C0.109375 8.0418 0.288672 8.95674 0.644629 9.88751C0.942578 10.6653 1.36973 11.4722 1.91553 12.2869C2.78037 13.5763 3.96953 14.921 5.44609 16.2842C7.89297 18.5439 10.3161 20.1048 10.4189 20.1681L11.0438 20.5689C11.3207 20.7455 11.6767 20.7455 11.9535 20.5689L12.5784 20.1681C12.6813 20.1022 15.1018 18.5439 17.5513 16.2842C19.0278 14.921 20.217 13.5763 21.0818 12.2869C21.6276 11.4722 22.0574 10.6653 22.3527 9.88751C22.7087 8.95674 22.888 8.0418 22.888 7.16378C22.8906 6.23301 22.7034 5.32862 22.3369 4.47696ZM11.5 18.4832C11.5 18.4832 2.11328 12.4689 2.11328 7.16378C2.11328 4.47696 4.33603 2.29903 7.07822 2.29903C9.00566 2.29903 10.6773 3.37481 11.5 4.9463C12.3227 3.37481 13.9943 2.29903 15.9218 2.29903C18.664 2.29903 20.8867 4.47696 20.8867 7.16378C20.8867 12.4689 11.5 18.4832 11.5 18.4832Z" fill="#2C2C2C"/>
</svg>