<svg width="21" height="21" viewBox="0 0 21 21" fill="none" xmlns="http://www.w3.org/2000/svg">
<path d="M19.6358 17.134C19.1384 15.9558 18.4166 14.8857 17.5106 13.9831C16.6074 13.0779 15.5374 12.3563 14.3597 11.8579C14.3492 11.8526 14.3386 11.85 14.3281 11.8447C15.9708 10.6582 17.0386 8.72549 17.0386 6.54492C17.0386 2.93262 14.1119 0.00585938 10.4996 0.00585938C6.88727 0.00585938 3.96052 2.93262 3.96052 6.54492C3.96052 8.72549 5.02839 10.6582 6.67106 11.8474C6.66052 11.8526 6.64997 11.8553 6.63942 11.8605C5.45817 12.3589 4.39821 13.0734 3.48854 13.9857C2.58338 14.889 1.8617 15.959 1.36335 17.1366C0.873767 18.2895 0.609725 19.5256 0.585515 20.7779C0.584811 20.8061 0.589747 20.8341 0.600032 20.8603C0.610318 20.8865 0.625743 20.9104 0.645401 20.9305C0.665059 20.9507 0.688551 20.9667 0.714493 20.9776C0.740435 20.9885 0.768303 20.9942 0.796453 20.9941H2.37848C2.4945 20.9941 2.58678 20.9019 2.58942 20.7885C2.64216 18.7529 3.45954 16.8466 4.90446 15.4017C6.39948 13.9066 8.38493 13.084 10.4996 13.084C12.6142 13.084 14.5997 13.9066 16.0947 15.4017C17.5396 16.8466 18.357 18.7529 18.4097 20.7885C18.4124 20.9045 18.5047 20.9941 18.6207 20.9941H20.2027C20.2309 20.9942 20.2587 20.9885 20.2847 20.9776C20.3106 20.9667 20.3341 20.9507 20.3538 20.9305C20.3734 20.9104 20.3888 20.8865 20.3991 20.8603C20.4094 20.8341 20.4143 20.8061 20.4136 20.7779C20.3873 19.5176 20.1262 18.2915 19.6358 17.134ZM10.4996 11.0801C9.28932 11.0801 8.15026 10.6081 7.29333 9.75117C6.43639 8.89424 5.96442 7.75518 5.96442 6.54492C5.96442 5.33467 6.43639 4.19561 7.29333 3.33867C8.15026 2.48174 9.28932 2.00977 10.4996 2.00977C11.7098 2.00977 12.8489 2.48174 13.7058 3.33867C14.5628 4.19561 15.0347 5.33467 15.0347 6.54492C15.0347 7.75518 14.5628 8.89424 13.7058 9.75117C12.8489 10.6081 11.7098 11.0801 10.4996 11.0801Z" fill="#2C2C2C"/>
</svg>